<svg width="117" height="117" viewBox="0 0 117 117" fill="none" xmlns="http://www.w3.org/2000/svg">
<path d="M67.935 104.985C66.4725 106.448 64.7053 107.179 62.6334 107.179C60.5616 107.179 58.7944 106.448 57.3319 104.985L11.6288 59.2819C10.8163 58.4694 10.2678 57.6163 9.98345 56.7226C9.69907 55.8288 9.55688 54.8944 9.55688 53.9194V16.8694C9.55688 14.7569 10.2475 13.0101 11.6288 11.6288C13.01 10.2476 14.7569 9.55695 16.8694 9.55695H53.9194C54.8944 9.55695 55.8694 9.69913 56.8444 9.98351C57.8194 10.2679 58.7131 10.8163 59.5256 11.6288L104.985 57.0882C106.529 58.6319 107.301 60.4398 107.301 62.5116C107.301 64.5835 106.529 66.3913 104.985 67.9351L67.935 104.985ZM62.9381 99.9882L99.9881 62.9382L16.8694 53.9194L62.9381 99.9882ZM29.6663 35.8819C31.3725 35.8819 32.8553 35.2523 34.1147 33.9929C35.3741 32.7335 36.0038 31.2507 36.0038 29.5444C36.0038 27.8382 35.3741 26.3554 34.1147 25.096C32.8553 23.8366 31.3725 23.2069 29.6663 23.2069C27.96 23.2069 26.4772 23.8366 25.2178 25.096C23.9584 26.3554 23.3288 27.8382 23.3288 29.5444C23.3288 31.2507 23.9584 32.7335 25.2178 33.9929C26.4772 35.2523 27.96 35.8819 29.6663 35.8819Z" fill="url(#paint0_linear_10_2)"/>
<path d="M52.048 72.5333C52.125 72.3994 52.1761 72.2646 52.2012 72.129C52.228 71.9917 52.2296 71.8545 52.2062 71.7172C52.1828 71.5799 52.1334 71.4452 52.0581 71.3129C51.9844 71.179 51.8856 71.0501 51.7618 70.9262C51.5123 70.6768 51.2361 70.5211 50.9331 70.4592C50.6318 70.3989 50.3162 70.4349 49.9865 70.5671C49.6584 70.6977 49.3302 70.9271 49.0021 71.2552C48.6724 71.5849 48.4388 71.9139 48.3016 72.242C48.1643 72.5701 48.1249 72.8857 48.1835 73.1887C48.2421 73.4917 48.4003 73.7721 48.6581 74.0299C48.8858 74.2575 49.1151 74.4132 49.3461 74.4969C49.5805 74.5806 49.8073 74.5948 50.0266 74.5396C50.2459 74.4844 50.4485 74.3638 50.6343 74.178L50.8377 74.4366L49.5872 73.1861L50.4937 72.2797L52.7109 74.4969L52.0304 75.1774C51.5701 75.6378 51.0779 75.9341 50.554 76.0663C50.0317 76.2002 49.5119 76.1843 48.9946 76.0186C48.479 75.8545 48.0002 75.5515 47.5583 75.1096C47.0678 74.6191 46.743 74.0818 46.584 73.4975C46.425 72.9133 46.4384 72.3207 46.6242 71.7197C46.8117 71.1171 47.1766 70.5445 47.719 70.0022C48.1409 69.5803 48.5778 69.2689 49.0298 69.0681C49.4834 68.8655 49.9362 68.7625 50.3882 68.7592C50.8419 68.7575 51.2755 68.8462 51.6889 69.0254C52.1041 69.2062 52.4833 69.4681 52.8264 69.8113C53.1244 70.1093 53.3588 70.429 53.5295 70.7705C53.702 71.1137 53.8091 71.4619 53.8509 71.8151C53.8945 72.17 53.871 72.5165 53.7806 72.8547C53.6902 73.1928 53.532 73.505 53.306 73.7913L52.048 72.5333ZM50.6312 78.0419L55.7738 72.8993L57.8981 75.0236C58.2831 75.4086 58.5459 75.8104 58.6866 76.2289C58.8305 76.6474 58.8498 77.0617 58.7443 77.4719C58.6405 77.8803 58.4129 78.2603 58.0613 78.6119C57.7047 78.9684 57.3239 79.1936 56.9188 79.2873C56.5154 79.3794 56.1052 79.3476 55.6884 79.1919C55.2732 79.0346 54.8698 78.76 54.4781 78.3683L53.1347 77.0249L54.114 76.0456L55.2264 77.158C55.4138 77.3455 55.5946 77.4777 55.7687 77.5547C55.9462 77.6317 56.1178 77.6526 56.2835 77.6175C56.4509 77.5807 56.6141 77.4827 56.7732 77.3237C56.9322 77.1647 57.031 77.0006 57.0695 76.8315C57.1096 76.6608 57.0921 76.4859 57.0167 76.3067C56.9431 76.1259 56.8133 75.9426 56.6275 75.7568L56.0148 75.1441L51.8741 79.2848L50.6312 78.0419ZM55.8767 78.5868L54.807 82.2177L53.4511 80.8617L54.5459 77.2559L55.8767 78.5868ZM64.8323 81.9578L59.6897 87.1004L58.6351 86.0458L59.5566 81.0312L59.524 80.9986L56.5559 83.9666L55.313 82.7237L60.4556 77.5811L61.5253 78.6508L60.5862 83.6377L60.6288 83.6804L63.5919 80.7174L64.8323 81.9578Z" fill="url(#paint1_linear_10_2)"/>
<defs>
<linearGradient id="paint0_linear_10_2" x1="58.4288" y1="9.55695" x2="58.4288" y2="107.179" gradientUnits="userSpaceOnUse">
<stop stop-color="#5A4ABA"/>
<stop offset="1" stop-color="white"/>
</linearGradient>
<linearGradient id="paint1_linear_10_2" x1="47.0606" y1="69.2153" x2="67.7673" y2="89.922" gradientUnits="userSpaceOnUse">
<stop stop-color="#A091FB"/>
<stop offset="1" stop-color="white"/>
</linearGradient>
</defs>
</svg>
